<svg xmlns="http://www.w3.org/2000/svg" xmlns:xlink="http://www.w3.org/1999/xlink" width="469" height="428" viewBox="0 0 469 428">
  <defs>
    <linearGradient id="linear-gradient" x1="0.5" x2="0.5" y2="1" gradientUnits="objectBoundingBox">
      <stop offset="0" stop-color="#0a354a"/>
      <stop offset="0.186" stop-color="#003046"/>
      <stop offset="0.364" stop-color="#003b57"/>
      <stop offset="0.506" stop-color="#003b57"/>
      <stop offset="0.787" stop-color="#00344d"/>
      <stop offset="1" stop-color="#002d3e"/>
      <stop offset="1" stop-color="#020b0f"/>
    </linearGradient>
    <linearGradient id="linear-gradient-2" x1="0.5" x2="0.5" y2="1" gradientUnits="objectBoundingBox">
      <stop offset="0" stop-color="#0a354a"/>
      <stop offset="0.186" stop-color="#003046"/>
      <stop offset="0.364" stop-color="#003b57"/>
      <stop offset="0.506" stop-color="#003b57"/>
      <stop offset="0.787" stop-color="#00344d" stop-opacity="0"/>
      <stop offset="1" stop-color="#002d3e" stop-opacity="0"/>
      <stop offset="1" stop-color="#020b0f"/>
    </linearGradient>
    <clipPath id="clip-Icon">
      <rect width="469" height="428"/>
    </clipPath>
  </defs>
  <g id="Icon" clip-path="url(#clip-Icon)">
    <g id="Planet" transform="matrix(0.883, -0.469, 0.469, 0.883, -33.635, 242.224)">
      <path id="Circle" d="M82.21,0A82.21,82.21,0,1,1,0,82.21,82.21,82.21,0,0,1,82.21,0Z" transform="translate(164.64 7.321)" fill="url(#linear-gradient)"/>
      <g id="Elipse" transform="translate(20.856 0) rotate(11)" fill="none">
        <path d="M244.122.341c134.825.188,244.157,24.984,244.2,55.384s-109.221,54.891-244.046,54.7S.118,85.443.076,55.043,109.3.153,244.122.341Z" stroke="none"/>
        <path d="M 242.5795440673828 11.339599609375 C 119.5020446777344 11.339599609375 32.84860229492188 31.60987854003906 13.80276489257813 50.68216705322266 C 12.0941162109375 52.39316940307617 11.0748291015625 54.01773834228516 11.07626342773438 55.02788162231445 C 11.09698486328125 69.98652648925781 93.4322509765625 99.21630859375 244.2901153564453 99.42681121826172 L 245.8178253173828 99.42787933349609 C 368.895263671875 99.42787933349609 455.5486755371094 79.1575927734375 474.5946044921875 60.08531188964844 C 476.3032531738281 58.37430953979492 477.3225402832031 56.74974060058594 477.3211059570313 55.73959732055664 C 477.3003845214844 40.78095245361328 394.9651184082031 11.55117034912109 244.1072540283203 11.34066772460938 L 242.5795440673828 11.339599609375 M 242.5795135498047 0.3395919799804688 C 243.0971832275391 0.3395919799804688 243.6039733886719 0.3399429321289063 244.1224060058594 0.340667724609375 C 378.9474792480469 0.52880859375 488.2789611816406 25.324951171875 488.3211059570313 55.72438049316406 C 488.363037109375 86.00698852539063 379.9273681640625 110.4278869628906 245.8178558349609 110.4278869628906 C 245.3001861572266 110.4278869628906 244.7933959960938 110.4275360107422 244.2749633789063 110.4268112182617 C 109.4498901367188 110.2386703491211 0.118408203125 85.44252777099609 0.076263427734375 55.04309844970703 C 0.034271240234375 24.76049041748047 108.4699401855469 0.3395919799804688 242.5795135498047 0.3395919799804688 Z" stroke="none" fill="rgba(255,255,255,0.9)"/>
      </g>
      <path id="Circle-2" data-name="Circle" d="M82.21,0a82.21,82.21,0,0,1,82.21,82.21c0,45.4-36.807,57.37-82.21,57.37S0,127.613,0,82.21A82.21,82.21,0,0,1,82.21,0Z" transform="translate(164.64 7.321)" fill="url(#linear-gradient-2)"/>
    </g>
  </g>
</svg>