<svg xmlns="http://www.w3.org/2000/svg" xmlns:xlink="http://www.w3.org/1999/xlink" width="472" height="472" viewBox="0 0 472 472">
  <defs>
    <linearGradient id="linear-gradient" x1="0.5" x2="0.5" y2="1" gradientUnits="objectBoundingBox">
      <stop offset="0" stop-color="#0a354a"/>
      <stop offset="0.186" stop-color="#003046"/>
      <stop offset="0.364" stop-color="#003b57"/>
      <stop offset="0.506" stop-color="#003b57"/>
      <stop offset="0.787" stop-color="#00344d"/>
      <stop offset="1" stop-color="#002d3e"/>
      <stop offset="1" stop-color="#020b0f"/>
    </linearGradient>
    <linearGradient id="linear-gradient-2" x1="0.5" x2="0.5" y2="1" gradientUnits="objectBoundingBox">
      <stop offset="0" stop-color="#0a354a"/>
      <stop offset="0.186" stop-color="#003046"/>
      <stop offset="0.364" stop-color="#003b57"/>
      <stop offset="0.506" stop-color="#003b57"/>
      <stop offset="0.787" stop-color="#00344d" stop-opacity="0"/>
      <stop offset="1" stop-color="#002d3e" stop-opacity="0"/>
      <stop offset="1" stop-color="#020b0f"/>
    </linearGradient>
    <clipPath id="clip-Logo">
      <rect width="472" height="472"/>
    </clipPath>
  </defs>
  <g id="Logo" clip-path="url(#clip-Logo)">
    <g id="Planet" transform="matrix(0.883, -0.469, 0.469, 0.883, -32.135, 216.224)">
      <path id="Circle" d="M82.21,0A82.21,82.21,0,1,1,0,82.21,82.21,82.21,0,0,1,82.21,0Z" transform="translate(164.64 7.321)" fill="url(#linear-gradient)"/>
      <g id="Elipse" transform="translate(20.856 0) rotate(11)" fill="none">
        <path d="M244.122.341c134.825.188,244.157,24.984,244.2,55.384s-109.221,54.891-244.046,54.7S.118,85.443.076,55.043,109.3.153,244.122.341Z" stroke="none"/>
        <path d="M 242.5795440673828 11.339599609375 C 119.5020446777344 11.339599609375 32.84860229492188 31.60987854003906 13.80276489257813 50.68216705322266 C 12.0941162109375 52.39316940307617 11.0748291015625 54.01773834228516 11.07626342773438 55.02788162231445 C 11.09698486328125 69.98652648925781 93.4322509765625 99.21630859375 244.2901153564453 99.42681121826172 L 245.8178253173828 99.42787933349609 C 368.895263671875 99.42787933349609 455.5486755371094 79.1575927734375 474.5946044921875 60.08531188964844 C 476.3032531738281 58.37430953979492 477.3225402832031 56.74974060058594 477.3211059570313 55.73959732055664 C 477.3003845214844 40.78095245361328 394.9651184082031 11.55117034912109 244.1072540283203 11.34066772460938 L 242.5795440673828 11.339599609375 M 242.5795135498047 0.3395919799804688 C 243.0971832275391 0.3395919799804688 243.6039733886719 0.3399429321289063 244.1224060058594 0.340667724609375 C 378.9474792480469 0.52880859375 488.2789611816406 25.324951171875 488.3211059570313 55.72438049316406 C 488.363037109375 86.00698852539063 379.9273681640625 110.4278869628906 245.8178558349609 110.4278869628906 C 245.3001861572266 110.4278869628906 244.7933959960938 110.4275360107422 244.2749633789063 110.4268112182617 C 109.4498901367188 110.2386703491211 0.118408203125 85.44252777099609 0.076263427734375 55.04309844970703 C 0.034271240234375 24.76049041748047 108.4699401855469 0.3395919799804688 242.5795135498047 0.3395919799804688 Z" stroke="none" fill="rgba(255,255,255,0.9)"/>
      </g>
      <path id="Circle-2" data-name="Circle" d="M82.21,0a82.21,82.21,0,0,1,82.21,82.21c0,45.4-36.807,57.37-82.21,57.37S0,127.613,0,82.21A82.21,82.21,0,0,1,82.21,0Z" transform="translate(164.64 7.321)" fill="url(#linear-gradient-2)"/>
    </g>
    <path id="Caminho_91" data-name="Caminho 91" d="M-178.6-28h5.68V-6.64a27.357,27.357,0,0,1-9.28,5.28A34.5,34.5,0,0,1-193.48.48,30.955,30.955,0,0,1-208.6-3.2a27.159,27.159,0,0,1-10.56-10.2A28.228,28.228,0,0,1-223-28a28.228,28.228,0,0,1,3.84-14.6A27.159,27.159,0,0,1-208.6-52.8a31.121,31.121,0,0,1,15.2-3.68,32.807,32.807,0,0,1,11.76,2.04,23.375,23.375,0,0,1,9.04,6.04l-3.68,3.76q-6.64-6.56-16.88-6.56a25.147,25.147,0,0,0-12.28,3,22.053,22.053,0,0,0-8.6,8.32A23.046,23.046,0,0,0-217.16-28a22.833,22.833,0,0,0,3.12,11.84,22.507,22.507,0,0,0,8.56,8.32A24.657,24.657,0,0,0-193.24-4.8,24.39,24.39,0,0,0-178.6-9.12Zm35.92-14.4q8.24,0,12.64,4.12t4.4,12.2V0h-5.44V-6.56a13.024,13.024,0,0,1-5.64,5.12A19.739,19.739,0,0,1-145.56.4q-7.04,0-11.2-3.36a10.851,10.851,0,0,1-4.16-8.88,10.76,10.76,0,0,1,3.88-8.64q3.88-3.28,12.36-3.28h13.36v-2.56q0-5.44-3.04-8.28t-8.88-2.84a22.574,22.574,0,0,0-7.68,1.32,19.353,19.353,0,0,0-6.32,3.64l-2.56-4.24a22.7,22.7,0,0,1,7.68-4.2A29.9,29.9,0,0,1-142.68-42.4Zm-2,38.32a14.969,14.969,0,0,0,8.24-2.2,13.137,13.137,0,0,0,5.12-6.36v-6.88h-13.2q-10.8,0-10.8,7.52a6.881,6.881,0,0,0,2.8,5.8Q-149.72-4.08-144.68-4.08Zm34.48-55.28h5.68V0h-5.68ZM-73.96-42.4q8.24,0,12.64,4.12t4.4,12.2V0h-5.44V-6.56A13.024,13.024,0,0,1-68-1.44,19.739,19.739,0,0,1-76.84.4q-7.04,0-11.2-3.36a10.851,10.851,0,0,1-4.16-8.88,10.76,10.76,0,0,1,3.88-8.64q3.88-3.28,12.36-3.28H-62.6v-2.56q0-5.44-3.04-8.28t-8.88-2.84a22.574,22.574,0,0,0-7.68,1.32,19.353,19.353,0,0,0-6.32,3.64l-2.56-4.24a22.7,22.7,0,0,1,7.68-4.2A29.9,29.9,0,0,1-73.96-42.4Zm-2,38.32a14.969,14.969,0,0,0,8.24-2.2,13.137,13.137,0,0,0,5.12-6.36v-6.88H-75.8q-10.8,0-10.8,7.52a6.881,6.881,0,0,0,2.8,5.8Q-81-4.08-75.96-4.08ZM-14.68,0-28.04-17.6-41.48,0h-6.4l16.64-21.6L-47.08-42.08h6.4L-28.04-25.6-15.4-42.08h6.24L-25-21.6-8.2,0Zm62.4.8A31.537,31.537,0,0,1,32.4-2.92,27.423,27.423,0,0,1,21.68-13.2,28.518,28.518,0,0,1,17.8-28a28.293,28.293,0,0,1,3.92-14.8A27.71,27.71,0,0,1,32.48-53.08,31.537,31.537,0,0,1,47.8-56.8a31.955,31.955,0,0,1,12.56,2.4,25.618,25.618,0,0,1,9.6,6.96l-6.72,6.32a19.6,19.6,0,0,0-14.96-6.56,20.976,20.976,0,0,0-10.32,2.52,18.154,18.154,0,0,0-7.12,7A20.11,20.11,0,0,0,28.28-28a20.11,20.11,0,0,0,2.56,10.16,18.154,18.154,0,0,0,7.12,7A20.976,20.976,0,0,0,48.28-8.32a19.491,19.491,0,0,0,14.96-6.64l6.72,6.4A25.55,25.55,0,0,1,60.32-1.6,32.249,32.249,0,0,1,47.72.8ZM96.6.56a24.238,24.238,0,0,1-11.68-2.8,20.416,20.416,0,0,1-8.12-7.8,22.028,22.028,0,0,1-2.92-11.32A21.813,21.813,0,0,1,76.8-32.64a20.5,20.5,0,0,1,8.12-7.76A24.238,24.238,0,0,1,96.6-43.2a24.407,24.407,0,0,1,11.76,2.8,20.5,20.5,0,0,1,8.12,7.76,21.813,21.813,0,0,1,2.92,11.28,22.027,22.027,0,0,1-2.92,11.32,20.416,20.416,0,0,1-8.12,7.8A24.407,24.407,0,0,1,96.6.56ZM96.6-8a12.218,12.218,0,0,0,9.12-3.68,13.249,13.249,0,0,0,3.6-9.68,13.249,13.249,0,0,0-3.6-9.68,12.218,12.218,0,0,0-9.12-3.68,12.087,12.087,0,0,0-9.08,3.68,13.334,13.334,0,0,0-3.56,9.68,13.334,13.334,0,0,0,3.56,9.68A12.087,12.087,0,0,0,96.6-8Zm74.24-51.36V0h-9.6V-5.52a15.472,15.472,0,0,1-6.12,4.56A20.666,20.666,0,0,1,147.08.56,22.512,22.512,0,0,1,136-2.16a19.544,19.544,0,0,1-7.72-7.72,23.094,23.094,0,0,1-2.8-11.48,22.87,22.87,0,0,1,2.8-11.44A19.615,19.615,0,0,1,136-40.48a22.513,22.513,0,0,1,11.08-2.72,20.308,20.308,0,0,1,7.76,1.44,15.609,15.609,0,0,1,6,4.32V-59.36ZM148.28-8a12.861,12.861,0,0,0,6.48-1.64,11.852,11.852,0,0,0,4.56-4.68A14.318,14.318,0,0,0,161-21.36a14.318,14.318,0,0,0-1.68-7.04,11.852,11.852,0,0,0-4.56-4.68,12.861,12.861,0,0,0-6.48-1.64,12.861,12.861,0,0,0-6.48,1.64,11.852,11.852,0,0,0-4.56,4.68,14.318,14.318,0,0,0-1.68,7.04,14.318,14.318,0,0,0,1.68,7.04,11.852,11.852,0,0,0,4.56,4.68A12.861,12.861,0,0,0,148.28-8Zm75.84-13.12q0,1.04-.16,2.96H190.44a11.618,11.618,0,0,0,4.6,7.48,15.078,15.078,0,0,0,9.24,2.76,15.571,15.571,0,0,0,11.6-4.64l5.36,6.16a18.06,18.06,0,0,1-7.28,5.2A26.516,26.516,0,0,1,204.04.56a26.4,26.4,0,0,1-12.4-2.8,20.165,20.165,0,0,1-8.28-7.8,22.027,22.027,0,0,1-2.92-11.32,22.353,22.353,0,0,1,2.84-11.24,20.145,20.145,0,0,1,7.88-7.8,22.992,22.992,0,0,1,11.36-2.8,22.414,22.414,0,0,1,11.16,2.76,19.547,19.547,0,0,1,7.68,7.76A23.531,23.531,0,0,1,224.12-21.12ZM202.52-35.2a12.063,12.063,0,0,0-8.12,2.84,11.946,11.946,0,0,0-4.04,7.56H214.6a11.789,11.789,0,0,0-3.92-7.52A11.921,11.921,0,0,0,202.52-35.2Z" transform="translate(236 363.614)" fill="#fff"/>
  </g>
</svg>